<svg xmlns="http://www.w3.org/2000/svg" viewBox="0 0 512 512" role="img" aria-labelledby="title desc">
  <title id="title">Watch Winder</title>
  <desc id="desc">Stylized watch with motion arcs for the watch winder dashboard.</desc>
  <defs>
    <linearGradient id="bg" x1="0" y1="0" x2="1" y2="1">
      <stop offset="0%" stop-color="#0B1F3A" />
      <stop offset="100%" stop-color="#1E5AA8" />
    </linearGradient>
    <linearGradient id="accent" x1="0" y1="0" x2="1" y2="1">
      <stop offset="0%" stop-color="#F7C86A" />
      <stop offset="100%" stop-color="#E89B2D" />
    </linearGradient>
  </defs>

  <rect x="24" y="24" width="464" height="464" rx="108" fill="url(#bg)" />

  <path d="M128 186c28-40 74-66 128-66s100 26 128 66" fill="none" stroke="#7FC4FF" stroke-width="18" stroke-linecap="round" opacity="0.95"/>
  <path d="M108 256c0-82 66-148 148-148" fill="none" stroke="#A9DAFF" stroke-width="14" stroke-linecap="round" opacity="0.85"/>

  <rect x="225" y="92" width="62" height="64" rx="22" fill="url(#accent)" />
  <rect x="225" y="356" width="62" height="64" rx="22" fill="url(#accent)" />

  <circle cx="256" cy="256" r="112" fill="#0D315E" stroke="#BEE6FF" stroke-width="14" />
  <circle cx="256" cy="256" r="80" fill="#F6FAFF" />
  <circle cx="256" cy="256" r="12" fill="#1E5AA8" />

  <path d="M256 256l40-34" stroke="#1E5AA8" stroke-width="12" stroke-linecap="round" />
  <path d="M256 256l0-50" stroke="#E89B2D" stroke-width="12" stroke-linecap="round" />

  <circle cx="384" cy="310" r="44" fill="#123967" stroke="#A9DAFF" stroke-width="10" />
  <path d="M384 286v24l18 10" fill="none" stroke="#F7C86A" stroke-width="8" stroke-linecap="round" stroke-linejoin="round" />
</svg>
